<svg width="197" height="31" viewBox="0 0 197 31" fill="none" xmlns="http://www.w3.org/2000/svg">
<path d="M30.3609 20.0786H21.8598L20.2379 24.0029H15.8964L24.0573 5.69101H28.2426L36.4314 24.0029H31.9828L30.3609 20.0786ZM29.0279 16.8627L26.1243 9.85068L23.2207 16.8627H29.0279Z" fill="#4D98E2"/>
<path d="M38.3378 5.69101H42.5744V24.0029H38.3378V5.69101Z" fill="#4D98E2"/>
<path d="M58.5827 24.0029L55.0523 18.9017H51.1536V24.0029H46.917V5.69101H54.8425C56.4645 5.69101 57.8726 5.96133 59.0675 6.50197C60.2618 7.04261 61.1817 7.81046 61.8266 8.80435C62.4709 9.79883 62.7937 10.9762 62.7937 12.3372C62.7937 13.6969 62.4663 14.8697 61.8126 15.856C61.1584 16.8411 60.2303 17.5944 59.0278 18.1164L63.1339 24.0029H58.5827ZM58.5035 12.3372C58.5035 11.3071 58.1714 10.5183 57.5085 9.96953C56.8466 9.41956 55.8795 9.14458 54.6072 9.14458H51.1536V15.5274H54.6072C55.8795 15.5274 56.8466 15.2489 57.5085 14.6908C58.1714 14.1333 58.5035 13.3485 58.5035 12.3372Z" fill="#4D98E2"/>
<mask id="mask0_1_17" style="mask-type:luminance" maskUnits="userSpaceOnUse" x="0" y="6" width="17" height="15">
<path d="M0 6.09047H16.7249V20.1022H0V6.09047Z" fill="white"/>
</mask>
<g mask="url(#mask0_1_17)">
<path d="M8.34715 6.09112H0.00102234V9.7282H4.46305V9.72704H8.09897C10.8255 9.72704 12.2033 10.9662 12.2033 13.0874C12.2033 15.208 10.8255 16.4204 8.09897 16.4204H5.38587H0.00102234V20.065H4.46305V20.0563H8.34715C13.4978 20.0563 16.7201 17.384 16.7201 13.0874C16.7201 8.79024 13.4978 6.09112 8.34715 6.09112Z" fill="#4D98E2"/>
</g>
<mask id="mask1_1_17" style="mask-type:luminance" maskUnits="userSpaceOnUse" x="0" y="21" width="5" height="4">
<path d="M0 21.2955H4.58903V24.6937H0V21.2955Z" fill="white"/>
</mask>
<g mask="url(#mask1_1_17)">
<path d="M0 21.4002H4.46203V24.693H0V21.4002Z" fill="#4D98E2"/>
</g>
<path d="M80.5555 24V5.8H88.4335C90.0629 5.8 91.4669 6.06867 92.6455 6.606C93.8242 7.126 94.7342 7.88 95.3755 8.868C96.0169 9.856 96.3375 11.0347 96.3375 12.404C96.3375 13.756 96.0169 14.926 95.3755 15.914C94.7342 16.902 93.8242 17.6647 92.6455 18.202C91.4669 18.722 90.0629 18.982 88.4335 18.982H82.8955L84.7675 17.084V24H80.5555ZM84.7675 17.552L82.8955 15.55H88.1995C89.4995 15.55 90.4702 15.2727 91.1115 14.718C91.7529 14.1633 92.0735 13.392 92.0735 12.404C92.0735 11.3987 91.7529 10.6187 91.1115 10.064C90.4702 9.50933 89.4995 9.232 88.1995 9.232H82.8955L84.7675 7.23V17.552ZM99.0525 24V4.708H103.109V24H99.0525ZM115.193 24V21.27L114.933 20.672V15.784C114.933 14.9173 114.664 14.2413 114.127 13.756C113.607 13.2707 112.801 13.028 111.709 13.028C110.963 13.028 110.227 13.1493 109.499 13.392C108.788 13.6173 108.181 13.9293 107.679 14.328L106.223 11.494C106.985 10.9567 107.904 10.5407 108.979 10.246C110.053 9.95133 111.145 9.804 112.255 9.804C114.387 9.804 116.042 10.3067 117.221 11.312C118.399 12.3173 118.989 13.886 118.989 16.018V24H115.193ZM110.929 24.208C109.837 24.208 108.901 24.026 108.121 23.662C107.341 23.2807 106.743 22.7693 106.327 22.128C105.911 21.4867 105.703 20.7673 105.703 19.97C105.703 19.138 105.902 18.41 106.301 17.786C106.717 17.162 107.367 16.6767 108.251 16.33C109.135 15.966 110.287 15.784 111.709 15.784H115.427V18.15H112.151C111.197 18.15 110.539 18.306 110.175 18.618C109.828 18.93 109.655 19.32 109.655 19.788C109.655 20.308 109.854 20.724 110.253 21.036C110.669 21.3307 111.232 21.478 111.943 21.478C112.619 21.478 113.225 21.322 113.763 21.01C114.3 20.6807 114.69 20.204 114.933 19.58L115.557 21.452C115.262 22.3533 114.725 23.038 113.945 23.506C113.165 23.974 112.159 24.208 110.929 24.208ZM128.12 24.208C126.473 24.208 125.19 23.792 124.272 22.96C123.353 22.1107 122.894 20.854 122.894 19.19V6.918H126.95V19.138C126.95 19.7273 127.106 20.1867 127.418 20.516C127.73 20.828 128.154 20.984 128.692 20.984C129.333 20.984 129.879 20.8107 130.33 20.464L131.422 23.324C131.006 23.6187 130.503 23.844 129.914 24C129.342 24.1387 128.744 24.208 128.12 24.208ZM120.736 13.444V10.324H130.434V13.444H120.736ZM133.933 24V9.7C133.933 8.12267 134.401 6.866 135.337 5.93C136.273 4.97667 137.607 4.5 139.341 4.5C139.93 4.5 140.493 4.56067 141.031 4.682C141.585 4.80333 142.053 4.994 142.435 5.254L141.369 8.192C141.143 8.036 140.892 7.91467 140.615 7.828C140.337 7.74133 140.043 7.698 139.731 7.698C139.141 7.698 138.682 7.87133 138.353 8.218C138.041 8.54733 137.885 9.05 137.885 9.726V11.026L137.989 12.768V24H133.933ZM131.775 13.444V10.324H141.473V13.444H131.775ZM149.711 24.208C148.221 24.208 146.895 23.896 145.733 23.272C144.589 22.648 143.679 21.7987 143.003 20.724C142.345 19.632 142.015 18.3927 142.015 17.006C142.015 15.602 142.345 14.3627 143.003 13.288C143.679 12.196 144.589 11.3467 145.733 10.74C146.895 10.116 148.221 9.804 149.711 9.804C151.185 9.804 152.502 10.116 153.663 10.74C154.825 11.3467 155.735 12.1873 156.393 13.262C157.052 14.3367 157.381 15.5847 157.381 17.006C157.381 18.3927 157.052 19.632 156.393 20.724C155.735 21.7987 154.825 22.648 153.663 23.272C152.502 23.896 151.185 24.208 149.711 24.208ZM149.711 20.88C150.387 20.88 150.994 20.724 151.531 20.412C152.069 20.1 152.493 19.658 152.805 19.086C153.117 18.4967 153.273 17.8033 153.273 17.006C153.273 16.1913 153.117 15.498 152.805 14.926C152.493 14.354 152.069 13.912 151.531 13.6C150.994 13.288 150.387 13.132 149.711 13.132C149.035 13.132 148.429 13.288 147.891 13.6C147.354 13.912 146.921 14.354 146.591 14.926C146.279 15.498 146.123 16.1913 146.123 17.006C146.123 17.8033 146.279 18.4967 146.591 19.086C146.921 19.658 147.354 20.1 147.891 20.412C148.429 20.724 149.035 20.88 149.711 20.88ZM159.833 24V10.012H163.707V13.964L163.161 12.82C163.577 11.832 164.244 11.0867 165.163 10.584C166.081 10.064 167.199 9.804 168.517 9.804V13.548C168.343 13.5307 168.187 13.522 168.049 13.522C167.91 13.5047 167.763 13.496 167.607 13.496C166.497 13.496 165.596 13.8167 164.903 14.458C164.227 15.082 163.889 16.0613 163.889 17.396V24H159.833ZM188.608 9.804C189.717 9.804 190.696 10.0293 191.546 10.48C192.412 10.9133 193.088 11.5893 193.574 12.508C194.076 13.4093 194.328 14.5707 194.328 15.992V24H190.272V16.616C190.272 15.4893 190.038 14.6573 189.57 14.12C189.102 13.5827 188.443 13.314 187.594 13.314C187.004 13.314 186.476 13.4527 186.008 13.73C185.54 13.99 185.176 14.3887 184.916 14.926C184.656 15.4633 184.526 16.148 184.526 16.98V24H180.47V16.616C180.47 15.4893 180.236 14.6573 179.768 14.12C179.317 13.5827 178.667 13.314 177.818 13.314C177.228 13.314 176.7 13.4527 176.232 13.73C175.764 13.99 175.4 14.3887 175.14 14.926C174.88 15.4633 174.75 16.148 174.75 16.98V24H170.694V10.012H174.568V13.834L173.84 12.716C174.325 11.7627 175.01 11.0433 175.894 10.558C176.795 10.0553 177.818 9.804 178.962 9.804C180.244 9.804 181.362 10.1333 182.316 10.792C183.286 11.4333 183.928 12.4213 184.24 13.756L182.81 13.366C183.278 12.274 184.023 11.4073 185.046 10.766C186.086 10.1247 187.273 9.804 188.608 9.804Z" fill="#4D98E2"/>
</svg>
